<svg xmlns="http://www.w3.org/2000/svg" viewBox="0 0 420 420" role="img" aria-label="Developer detective mascot illustration">
  <defs>
    <linearGradient id="bgGrad" x1="0" y1="0" x2="1" y2="1">
      <stop offset="0%" stop-color="#4f8eff"/>
      <stop offset="100%" stop-color="#6cc7ff"/>
    </linearGradient>
    <linearGradient id="coatGrad" x1="0" y1="0" x2="1" y2="1">
      <stop offset="0%" stop-color="#1f2f57"/>
      <stop offset="100%" stop-color="#2e4a85"/>
    </linearGradient>
    <filter id="shadow" x="-20%" y="-20%" width="140%" height="140%">
      <feDropShadow dx="0" dy="10" stdDeviation="10" flood-color="#0b1e46" flood-opacity="0.25"/>
    </filter>
  </defs>

  <circle cx="210" cy="210" r="190" fill="url(#bgGrad)" opacity="0.12"/>
  <g filter="url(#shadow)">
    <ellipse cx="210" cy="340" rx="100" ry="20" fill="#0f214f" opacity="0.2"/>

    <path d="M145 164c14-36 48-56 65-56s51 20 65 56l-14 20h-102z" fill="#19284b"/>
    <rect x="155" y="124" width="110" height="28" rx="14" fill="#243a68"/>
    <rect x="146" y="146" width="128" height="20" rx="10" fill="#2a467c"/>

    <rect x="132" y="170" width="156" height="124" rx="72" fill="#ecf4ff"/>
    <rect x="152" y="198" width="42" height="28" rx="10" fill="#20355f"/>
    <rect x="226" y="198" width="42" height="28" rx="10" fill="#20355f"/>
    <rect x="194" y="210" width="32" height="8" rx="4" fill="#20355f"/>

    <circle cx="173" cy="213" r="6" fill="#56d0ff"/>
    <circle cx="247" cy="213" r="6" fill="#56d0ff"/>

    <path d="M182 252c8 10 18 14 28 14s20-4 28-14" fill="none" stroke="#2d4a85" stroke-width="6" stroke-linecap="round"/>

    <path d="M120 290c8-44 40-72 90-72s82 28 90 72v30H120z" fill="url(#coatGrad)"/>
    <rect x="198" y="240" width="24" height="90" rx="12" fill="#0f1d3b"/>
    <circle cx="210" cy="268" r="4" fill="#6cc7ff"/>
    <circle cx="210" cy="288" r="4" fill="#6cc7ff"/>

    <rect x="305" y="220" width="50" height="76" rx="10" fill="#1c2f58"/>
    <rect x="312" y="228" width="36" height="9" rx="4" fill="#6cc7ff"/>
    <rect x="312" y="244" width="26" height="7" rx="3" fill="#a8d9ff"/>
    <rect x="312" y="257" width="31" height="7" rx="3" fill="#a8d9ff"/>
    <rect x="312" y="270" width="22" height="7" rx="3" fill="#a8d9ff"/>

    <path d="M306 236l-12-8" stroke="#2e4a85" stroke-width="8" stroke-linecap="round"/>
  </g>
</svg>
